# xmcd
#
# Track frame offsets:
#	150
#	15000
#	30750
#	42075
#	62250
#	77100
#	90675
#	107475
#	121650
#	140250
#
# Disc length: 2158 seconds
# Revision: 0
# Processed by: cddbd v1.5.2PL0 Copyright (c) Steve Scherf et al.
# Submitted via: dBpowerAMP V12.0
#
DISCID=5d086c0a
DTITLE=The Jenkins Twins - Jellico
DYEAR=2015
DGENRE=Country
TTITLE0=Sunrise
TTITLE1=Jellico
TTITLE2=Kentucky
TTITLE3=The Fool
TTITLE4=Mississippi River
TTITLE5=Back to Before
TTITLE6=Plant a Whole New World
TTITLE7=Stuck
TTITLE8=Wrong Side of Town
TTITLE9=Pot of Gold
EXTD=
EXTT0=
EXTT1=
EXTT2=
EXTT3=
EXTT4=
EXTT5=
EXTT6=
EXTT7=
EXTT8=
EXTT9=
PLAYORDER=
